<svg width="20" height="21" viewBox="0 0 20 21" fill="none" xmlns="http://www.w3.org/2000/svg">
<path d="M17 2.5C17.5523 2.5 18 2.94772 18 3.5V17.5C18 18.0523 17.5523 18.5 17 18.5H3C2.44772 18.5 2 18.0523 2 17.5V3.5C2 2.94772 2.44772 2.5 3 2.5H17ZM7.68848 11.2441C6.03428 11.2442 5 12.4653 5 13.4814C5.00007 13.8116 5.18343 13.9951 5.64551 13.9951H8.43359C8.05217 13.4412 8.5179 12.3257 9.30664 11.7168C8.89952 11.4454 8.37427 11.2441 7.68848 11.2441ZM11.9111 11.2549C10.0112 11.2549 8.82643 12.5603 8.82617 13.5068C8.82617 13.8295 9.03141 13.9951 9.60742 13.9951H14.2188C14.7945 13.9951 15 13.8297 15 13.5068C14.9999 12.5604 13.8148 11.2549 11.9111 11.2549ZM7.69238 7.89844C7.01033 7.89851 6.40844 8.49604 6.41211 9.27734C6.41211 10.0658 7.00644 10.6824 7.69238 10.6826C8.3747 10.6826 8.96973 10.0656 8.96973 9.26953C8.96949 8.4812 8.37082 7.89844 7.69238 7.89844ZM11.915 7.39941C11.13 7.39941 10.4473 8.08563 10.4473 8.98438C10.4475 9.89398 11.1264 10.5977 11.915 10.5977C12.7037 10.5975 13.3818 9.89362 13.3818 8.97656C13.3818 8.0706 12.7001 7.39954 11.915 7.39941Z" fill="white"/>
</svg>
