<svg width="20" height="20" viewBox="0 0 20 20" fill="none" xmlns="http://www.w3.org/2000/svg">
<path d="M10.0002 10.0002C9.0835 10.0002 8.29877 9.67377 7.646 9.021C6.99322 8.36822 6.66683 7.5835 6.66683 6.66683C6.66683 5.75016 6.99322 4.96544 7.646 4.31266C8.29877 3.65989 9.0835 3.3335 10.0002 3.3335C10.9168 3.3335 11.7016 3.65989 12.3543 4.31266C13.0071 4.96544 13.3335 5.75016 13.3335 6.66683C13.3335 7.5835 13.0071 8.36822 12.3543 9.021C11.7016 9.67377 10.9168 10.0002 10.0002 10.0002ZM3.3335 15.0002V14.3335C3.3335 13.8613 3.45516 13.4274 3.6985 13.0318C3.94183 12.6363 4.26461 12.3341 4.66683 12.1252C5.52794 11.6946 6.40294 11.3718 7.29183 11.1568C8.18072 10.9418 9.0835 10.8341 10.0002 10.8335C10.9168 10.8329 11.8196 10.9407 12.7085 11.1568C13.5974 11.3729 14.4724 11.6957 15.3335 12.1252C15.7363 12.3335 16.0593 12.6357 16.3027 13.0318C16.546 13.4279 16.6674 13.8618 16.6668 14.3335V15.0002C16.6668 15.4585 16.5038 15.851 16.1777 16.1777C15.8516 16.5043 15.4591 16.6674 15.0002 16.6668H5.00016C4.54183 16.6668 4.14961 16.5038 3.8235 16.1777C3.49738 15.8516 3.33405 15.4591 3.3335 15.0002Z" fill="white"/>
</svg>
