<svg width="15" height="16" viewBox="0 0 15 16" fill="none" xmlns="http://www.w3.org/2000/svg">
<path fill-rule="evenodd" clip-rule="evenodd" d="M6.83303 6V8.78C6.38803 8.93727 6.01297 9.2468 5.77412 9.65387C5.53528 10.0609 5.44804 10.5393 5.52782 11.0045C5.6076 11.4697 5.84927 11.8917 6.21011 12.1959C6.57095 12.5001 7.02773 12.667 7.49969 12.667C7.97166 12.667 8.42844 12.5001 8.78928 12.1959C9.15012 11.8917 9.39179 11.4697 9.47157 11.0045C9.55135 10.5393 9.46411 10.0609 9.22527 9.65387C8.98642 9.2468 8.61136 8.93727 8.16636 8.78V6H6.83303ZM6.83303 10.6667C6.83303 10.4899 6.90327 10.3203 7.02829 10.1953C7.15331 10.0702 7.32288 10 7.49969 10C7.67651 10 7.84607 10.0702 7.9711 10.1953C8.09612 10.3203 8.16636 10.4899 8.16636 10.6667C8.16636 10.8435 8.09612 11.013 7.9711 11.1381C7.84607 11.2631 7.67651 11.3333 7.49969 11.3333C7.32288 11.3333 7.15331 11.2631 7.02829 11.1381C6.90327 11.013 6.83303 10.8435 6.83303 10.6667Z" fill="black"/>
<path d="M7.49967 3.33325C8.73735 3.33325 9.92434 3.82492 10.7995 4.70009C11.6747 5.57526 12.1663 6.76224 12.1663 7.99992V8.66659H10.833V7.99992C10.833 7.11586 10.4818 6.26802 9.8567 5.6429C9.23158 5.01777 8.38373 4.66659 7.49967 4.66659C6.61562 4.66659 5.76777 5.01777 5.14265 5.6429C4.51753 6.26802 4.16634 7.11586 4.16634 7.99992V8.66659H2.83301V7.99992C2.83301 6.76224 3.32467 5.57526 4.19984 4.70009C5.07501 3.82492 6.262 3.33325 7.49967 3.33325Z" fill="black"/>
<path fill-rule="evenodd" clip-rule="evenodd" d="M7.49984 15.3333C11.5498 15.3333 14.8332 12.05 14.8332 7.99996C14.8332 3.94996 11.5498 0.666626 7.49984 0.666626C3.44984 0.666626 0.166504 3.94996 0.166504 7.99996C0.166504 12.05 3.44984 15.3333 7.49984 15.3333ZM7.49984 14C8.28777 14 9.06798 13.8448 9.79594 13.5432C10.5239 13.2417 11.1853 12.7998 11.7425 12.2426C12.2996 11.6854 12.7416 11.024 13.0431 10.2961C13.3446 9.56811 13.4998 8.78789 13.4998 7.99996C13.4998 7.21203 13.3446 6.43181 13.0431 5.70386C12.7416 4.9759 12.2996 4.31447 11.7425 3.75732C11.1853 3.20017 10.5239 2.75821 9.79594 2.45668C9.06798 2.15515 8.28777 1.99996 7.49984 1.99996C5.90854 1.99996 4.38241 2.6321 3.2572 3.75732C2.13198 4.88254 1.49984 6.40866 1.49984 7.99996C1.49984 9.59126 2.13198 11.1174 3.2572 12.2426C4.38241 13.3678 5.90854 14 7.49984 14Z" fill="black"/>
</svg>
