<svg width="24" height="24" viewBox="0 0 24 24" fill="none" xmlns="http://www.w3.org/2000/svg">
<path d="M21.3333 3.33325H2.66667C1.95942 3.33325 1.28115 3.6142 0.781049 4.1143C0.280952 4.6144 0 5.29267 0 5.99992L0 17.9999C0 18.7072 0.280952 19.3854 0.781049 19.8855C1.28115 20.3856 1.95942 20.6666 2.66667 20.6666H21.3333C22.0406 20.6666 22.7189 20.3856 23.219 19.8855C23.719 19.3854 24 18.7072 24 17.9999V5.99992C24 5.29267 23.719 4.6144 23.219 4.1143C22.7189 3.6142 22.0406 3.33325 21.3333 3.33325Z" fill="#DA251D"/>
<path d="M13.1687 10.6914L12 7.09473L10.8314 10.6914H7.05005L10.1094 12.9134L8.94072 16.5101L12 14.2874L15.0594 16.5101L13.8907 12.9134L16.95 10.6914H13.1687Z" fill="#FFFF00"/>
</svg>
